<svg width="62" height="62" viewBox="0 0 62 62" fill="none" xmlns="http://www.w3.org/2000/svg">
<rect width="62" height="62" rx="31" fill="white"/>
<mask id="path-2-inside-1_106_912" fill="white">
<path d="M19 19.7272C19 18.4735 19.5136 17.2711 20.4279 16.3846C21.3421 15.498 22.5821 15 23.875 15H38.125C38.7652 15 39.3991 15.1223 39.9906 15.3598C40.582 15.5974 41.1195 15.9456 41.5721 16.3846C42.0248 16.8235 42.3839 17.3447 42.6289 17.9182C42.8739 18.4917 43 19.1064 43 19.7272V45.9087C43.0001 46.1118 42.9417 46.3109 42.8314 46.4835C42.7211 46.6562 42.5633 46.7956 42.3758 46.886C42.1882 46.9764 41.9784 47.0142 41.7699 46.9952C41.5613 46.9762 41.3624 46.9012 41.1955 46.7785L31 39.2761L20.8045 46.7771C20.6377 46.8997 20.4389 46.9747 20.2305 46.9937C20.0221 47.0128 19.8124 46.9751 19.6249 46.8848C19.4374 46.7946 19.2796 46.6555 19.1692 46.483C19.0588 46.3106 19.0002 46.1117 19 45.9087V19.7272ZM23.875 17.1818C23.1788 17.1818 22.5111 17.45 22.0188 17.9273C21.5266 18.4047 21.25 19.0521 21.25 19.7272V43.7124L30.3205 37.0405C30.516 36.8968 30.7547 36.819 31 36.819C31.2453 36.819 31.484 36.8968 31.6795 37.0405L40.75 43.7124V19.7272C40.75 19.0521 40.4734 18.4047 39.9812 17.9273C39.4889 17.45 38.8212 17.1818 38.125 17.1818H23.875Z"/>
</mask>
<path d="M19 19.7272C19 18.4735 19.5136 17.2711 20.4279 16.3846C21.3421 15.498 22.5821 15 23.875 15H38.125C38.7652 15 39.3991 15.1223 39.9906 15.3598C40.582 15.5974 41.1195 15.9456 41.5721 16.3846C42.0248 16.8235 42.3839 17.3447 42.6289 17.9182C42.8739 18.4917 43 19.1064 43 19.7272V45.9087C43.0001 46.1118 42.9417 46.3109 42.8314 46.4835C42.7211 46.6562 42.5633 46.7956 42.3758 46.886C42.1882 46.9764 41.9784 47.0142 41.7699 46.9952C41.5613 46.9762 41.3624 46.9012 41.1955 46.7785L31 39.2761L20.8045 46.7771C20.6377 46.8997 20.4389 46.9747 20.2305 46.9937C20.0221 47.0128 19.8124 46.9751 19.6249 46.8848C19.4374 46.7946 19.2796 46.6555 19.1692 46.483C19.0588 46.3106 19.0002 46.1117 19 45.9087V19.7272ZM23.875 17.1818C23.1788 17.1818 22.5111 17.45 22.0188 17.9273C21.5266 18.4047 21.25 19.0521 21.25 19.7272V43.7124L30.3205 37.0405C30.516 36.8968 30.7547 36.819 31 36.819C31.2453 36.819 31.484 36.8968 31.6795 37.0405L40.75 43.7124V19.7272C40.75 19.0521 40.4734 18.4047 39.9812 17.9273C39.4889 17.45 38.8212 17.1818 38.125 17.1818H23.875Z" fill="#362FF0"/>
<path d="M19 19.7272L82 19.7272L19 19.7272ZM23.875 15L23.875 -48L23.875 15ZM43 19.7272H-20H43ZM43 45.9087H-20V45.9201L-20 45.9314L43 45.9087ZM41.1955 46.7785L3.85629 97.5209L3.87237 97.5327L3.88846 97.5445L41.1955 46.7785ZM31 39.2761L68.3392 -11.4662L31.0036 -38.94L-6.33452 -11.4697L31 39.2761ZM20.8045 46.7771L58.1116 97.543L58.1253 97.5329L58.139 97.5229L20.8045 46.7771ZM19 45.9087H-44V45.9407L-44 45.9727L19 45.9087ZM21.25 43.7124H-41.75V168.26L58.5794 94.4619L21.25 43.7124ZM30.3205 37.0405L-6.98654 -13.7255L-6.99774 -13.7173L-7.00894 -13.709L30.3205 37.0405ZM31.6795 37.0405L69.0089 -13.709L68.9977 -13.7173L68.9865 -13.7255L31.6795 37.0405ZM40.75 43.7124L3.42056 94.4619L103.75 168.26V43.7124H40.75ZM19 19.7272L82 19.7272C82 35.8188 75.3897 50.8443 64.2848 61.6126L20.4279 16.3846L-23.4291 -28.8434C-36.3625 -16.3021 -44 1.12813 -44 19.7272L19 19.7272ZM20.4279 16.3846L64.2848 61.6126C53.2458 72.3169 38.6756 78 23.875 78L23.875 15L23.875 -48C6.48849 -48 -10.5616 -41.3208 -23.4291 -28.8434L20.4279 16.3846ZM23.875 15V78H38.125V15V-48H23.875V15ZM38.125 15V78C30.7565 78 23.4171 76.5949 16.5095 73.8204L39.9906 15.3598L63.4717 -43.1007C55.3812 -46.3503 46.7739 -48 38.125 -48V15ZM39.9906 15.3598L16.5095 73.8204C9.59905 71.0448 3.19643 66.9276 -2.28477 61.6126L41.5721 16.3846L85.4291 -28.8434C79.0425 -35.0364 71.565 -39.85 63.4717 -43.1007L39.9906 15.3598ZM41.5721 16.3846L-2.28477 61.6126C-7.77004 56.2936 -12.2281 49.8733 -15.3067 42.6661L42.6289 17.9182L100.565 -6.82976C96.9959 -15.184 91.8197 -22.6465 85.4291 -28.8434L41.5721 16.3846ZM42.6289 17.9182L-15.3067 42.6661C-18.3874 35.4542 -20 27.6535 -20 19.7272L43 19.7272L106 19.7272C106 10.5593 104.135 1.52926 100.565 -6.82976L42.6289 17.9182ZM43 19.7272H-20V45.9087H43H106V19.7272H43ZM43 45.9087L-20 45.9314C-20.0043 33.9973 -16.5647 22.4376 -10.2614 12.5696L42.8314 46.4835L95.9242 80.3975C102.448 70.1842 106.004 58.2263 106 45.886L43 45.9087ZM42.8314 46.4835L-10.2614 12.5696C-3.97085 2.72166 4.85641 -4.96584 15.0205 -9.86515L42.3758 46.886L69.731 103.637C80.2702 98.557 89.4131 90.5907 95.9242 80.3975L42.8314 46.4835ZM42.3758 46.886L15.0205 -9.86515C25.1712 -14.758 36.3968 -16.7543 47.4808 -15.7454L41.7699 46.9952L36.0589 109.736C47.56 110.783 59.2052 108.711 69.731 103.637L42.3758 46.886ZM41.7699 46.9952L47.4808 -15.7454C58.5681 -14.7362 69.3196 -10.7359 78.5025 -3.98744L41.1955 46.7785L3.88846 97.5445C13.4053 104.538 24.5546 108.689 36.0589 109.736L41.7699 46.9952ZM41.1955 46.7785L78.5347 -3.96379L68.3392 -11.4662L31 39.2761L-6.33921 90.0184L3.85629 97.5209L41.1955 46.7785ZM31 39.2761L-6.33452 -11.4697L-16.53 -3.96869L20.8045 46.7771L58.139 97.5229L68.3345 90.0218L31 39.2761ZM20.8045 46.7771L-16.5026 -3.98888C-7.32513 -10.7332 3.41896 -14.7328 14.4992 -15.745L20.2305 46.9937L25.9618 109.733C37.4588 108.682 48.6005 104.533 58.1116 97.543L20.8045 46.7771ZM20.2305 46.9937L14.4992 -15.745C25.5763 -16.7569 36.7956 -14.7673 46.943 -9.88417L19.6249 46.8848L-7.69322 103.654C2.82921 108.717 14.468 110.782 25.9618 109.733L20.2305 46.9937ZM19.6249 46.8848L46.943 -9.88417C57.104 -4.99453 65.9315 2.68058 72.2276 12.5153L19.1692 46.483L-33.8892 80.4508C-27.3723 90.6303 -18.2292 98.5838 -7.69322 103.654L19.6249 46.8848ZM19.1692 46.483L72.2276 12.5153C78.5365 22.37 81.9879 33.9178 82 45.8448L19 45.9087L-44 45.9727C-43.9875 58.3056 -40.4189 70.2512 -33.8892 80.4508L19.1692 46.483ZM19 45.9087H82V19.7272H19H-44V45.9087H19ZM23.875 17.1818V-45.8182C7.08523 -45.8182 -9.39255 -39.3689 -21.8381 -27.3007L22.0188 17.9273L65.8758 63.1553C54.4148 74.2688 39.2724 80.1818 23.875 80.1818V17.1818ZM22.0188 17.9273L-21.8381 -27.3007C-34.3495 -15.1685 -41.75 1.7068 -41.75 19.7272H21.25H84.25C84.25 36.3975 77.4027 51.9778 65.8758 63.1553L22.0188 17.9273ZM21.25 19.7272H-41.75V43.7124H21.25H84.25V19.7272H21.25ZM21.25 43.7124L58.5794 94.4619L67.6499 87.79L30.3205 37.0405L-7.00894 -13.709L-16.0794 -7.03712L21.25 43.7124ZM30.3205 37.0405L67.6275 87.8064C56.8797 95.7048 44.016 99.819 31 99.819V36.819V-26.181C17.4934 -26.181 4.15232 -21.9113 -6.98654 -13.7255L30.3205 37.0405ZM31 36.819V99.819C17.984 99.819 5.12025 95.7048 -5.62754 87.8064L31.6795 37.0405L68.9865 -13.7255C57.8477 -21.9113 44.5066 -26.181 31 -26.181V36.819ZM31.6795 37.0405L-5.64994 87.79L3.42056 94.4619L40.75 43.7124L78.0794 -7.03712L69.0089 -13.709L31.6795 37.0405ZM40.75 43.7124H103.75V19.7272H40.75H-22.25V43.7124H40.75ZM40.75 19.7272H103.75C103.75 1.70671 96.3495 -15.1685 83.8381 -27.3007L39.9812 17.9273L-3.87577 63.1553C-15.4026 51.9779 -22.25 36.3975 -22.25 19.7272H40.75ZM39.9812 17.9273L83.8381 -27.3007C71.3926 -39.3689 54.9148 -45.8182 38.125 -45.8182V17.1818V80.1818C22.7276 80.1818 7.58516 74.2688 -3.87577 63.1553L39.9812 17.9273ZM38.125 17.1818V-45.8182H23.875V17.1818V80.1818H38.125V17.1818Z" fill="#2933EC" mask="url(#path-2-inside-1_106_912)"/>
</svg>
